<?xml version="1.0" encoding="utf-8"?>
<!-- Generator: Adobe Illustrator 24.3.0, SVG Export Plug-In . SVG Version: 6.00 Build 0)  -->
<svg version="1.1" baseProfile="tiny" id="Layer_1" xmlns="http://www.w3.org/2000/svg" xmlns:xlink="http://www.w3.org/1999/xlink"
	 x="0px" y="0px" viewBox="0 0 125.1 160.2" overflow="visible" xml:space="preserve">
<g>
	<path d="M76,80L63,98.9c0.1,0.2-0.1,0.4-0.1,0.6c0.2,1.2,0.4,3-0.4,4c-0.6,0.9-1.5,2.1-2.4,2.4c-0.4,0.1-1.5,0.3-1.8,0.3
		c-0.6,0-2.2-0.3-2.6-0.7c-0.7-0.5-1.2-2.1-1.2-3.1c0-1,0.3-2.4,0.9-3.3c0.9-1.3,2.8-2.2,4.1-2.2l12.9-19.5
		c-2.9-1.6-6.3-2.5-9.9-2.5c-11.4,0-20.6,9.2-20.6,20.6s9.2,20.6,20.6,20.6s20.6-9.2,20.6-20.6C83.1,89.3,80.4,83.8,76,80z"/>
	<path d="M123.8,5.3c-1.4-0.9-3.2-0.5-4.2,0.9L59.8,97.7c-1.3,0-2.8,0.7-3.7,2c-0.6,0.9-1,1.9-1,2.9c0,1,0.4,1.9,1.1,2.4
		c0.5,0.3,1,0.5,1.6,0.5c0.3,0,0.7-0.1,1.1-0.2c0.9-0.3,1.8-1,2.4-1.9c0.8-1.1,1.1-2.4,0.9-3.5c0-0.2-0.1-0.4-0.2-0.6l62.5-89.8
		c0,0,0-0.1,0-0.1C125.6,8.1,125.2,6.2,123.8,5.3z"/>
	<g>
		<path d="M87.9,90.9C87.9,90.9,87.9,90.9,87.9,90.9L29.9,3L87.9,90.9c0.4-0.3,0.9-0.4,1.5-0.4L32.4,1.4c0,0,0-0.1-0.1-0.1
			c-0.9-1.4-2.8-1.7-4.2-0.8c-1.4,0.9-1.7,2.8-0.8,4.2L87,92.1C87.2,91.6,87.5,91.2,87.9,90.9z"/>
		<path d="M90.6,95.1c-0.6,0.4-1.4,0.2-1.8-0.4l-1.1-1.5c-0.1,0.7,0.1,1.6,0.6,2.4c0.5,0.9,1.3,1.5,2.1,1.7c0.3,0.1,0.8,0.1,1.3-0.2
			c1-0.6,1-2.4,0.2-3.8c-0.4-0.7-1.1-1.2-1.7-1.5l0.9,1.4C91.4,93.8,91.2,94.7,90.6,95.1z"/>
		<path d="M87.7,93.1l1.1,1.5c0.4,0.6,1.2,0.8,1.8,0.4c0.6-0.4,0.8-1.2,0.4-1.9l-0.9-1.4c-0.2-0.1-0.3-0.1-0.5-0.2
			c-0.5-0.1-0.9,0-1.2,0.1l1.5,2.2l-1.5-2.2c0,0,0,0,0,0C88,92,87.8,92.5,87.7,93.1z"/>
		<path d="M92.7,92.7c-0.7-1.1-1.7-1.9-2.8-2.1c-0.2,0-0.3-0.1-0.5-0.1l0.3,0.5c0.9,0.2,1.9,0.8,2.6,1.9c1,1.7,0.9,3.7-0.3,4.5
			c-1.2,0.8-3.1,0-4.1-1.6c-0.7-1.1-0.8-2.3-0.5-3.2L87,92.1c-0.5,1.1-0.4,2.7,0.4,4v0c0.7,1.1,1.7,1.9,2.8,2.1
			c0.2,0.1,0.5,0.1,0.7,0.1c0.5,0,1-0.1,1.4-0.4C93.6,96.9,93.8,94.6,92.7,92.7z"/>
		<path d="M88.1,91.3C88.1,91.3,88.1,91.3,88.1,91.3l-0.3-0.4c0,0,0,0,0,0c-0.4,0.3-0.7,0.7-0.9,1.2l0.3,0.5
			C87.5,92,87.7,91.6,88.1,91.3z"/>
		<path d="M87.9,90.9l0.3,0.4c0.4-0.3,0.9-0.3,1.5-0.2l-0.3-0.5C88.8,90.5,88.3,90.6,87.9,90.9z"/>
		<path d="M91.8,93.2c0.9,1.4,0.8,3.2-0.2,3.8c-0.4,0.3-0.9,0.3-1.3,0.2c-0.8-0.2-1.6-0.8-2.1-1.7c-0.5-0.8-0.6-1.7-0.6-2.4
			l-0.4-0.6c-0.3,0.9-0.2,2.2,0.5,3.2c1,1.7,2.9,2.4,4.1,1.6c1.2-0.8,1.4-2.8,0.3-4.5c-0.6-1-1.6-1.7-2.6-1.9l0.4,0.7
			C90.8,92,91.4,92.6,91.8,93.2z"/>
		<path d="M88.4,91.7C88.4,91.7,88.4,91.7,88.4,91.7l-0.3-0.4c0,0,0,0,0,0c-0.4,0.3-0.7,0.7-0.8,1.2l0.4,0.6
			C87.8,92.5,88,92,88.4,91.7z"/>
		<path d="M88.2,91.3l0.3,0.4c0.3-0.2,0.7-0.2,1.2-0.1c0.2,0,0.3,0.1,0.5,0.2l-0.4-0.7C89.1,91,88.6,91,88.2,91.3z"/>
	</g>
	<path d="M118,120.8c3.5-7.7,5.4-16.2,5.4-25.2c0-9.4-2.1-18.4-6-26.4c0.9-0.7,1.5-1.8,1.5-3.1c0-2.2-1.8-3.9-3.9-3.9
		c-0.5,0-0.9,0.1-1.4,0.3c-10.2-15.9-27.4-26.8-47.2-28.3c-0.2-1.9-1.9-3.4-3.9-3.4c-1.9,0-3.6,1.4-3.9,3.3
		c-21.4,1-40,12.9-50.2,30.3C8.1,64.1,7.5,64,7,64c-2.2,0-3.9,1.8-3.9,3.9c0,1.4,0.8,2.7,2,3.4C1.8,78.7,0,87,0,95.6
		c0,11,2.9,21.3,7.9,30.2c-0.8,0.7-1.4,1.8-1.4,3c0,2.2,1.8,3.9,3.9,3.9c0.6,0,1.2-0.1,1.7-0.4c10.5,14.1,26.8,23.6,45.3,24.9
		c0.4,1.7,2,3,3.8,3c1.8,0,3.4-1.3,3.8-3c21-1.1,39.2-12.8,49.4-29.7c0.2,0,0.5,0.1,0.8,0.1c2.2,0,3.9-1.8,3.9-3.9
		C119.2,122.5,118.7,121.6,118,120.8z M61.7,152.3C30.4,152.3,5,126.9,5,95.6s25.4-56.7,56.7-56.7s56.7,25.4,56.7,56.7
		c0,9.2-2.2,17.8-6.1,25.5c-0.4,0.5-0.7,1-0.9,1.6C101.8,140.3,83.1,152.3,61.7,152.3z"/>
</g>
</svg>
