<?xml version="1.0" encoding="utf-8"?>
<!-- Generator: Adobe Illustrator 24.3.0, SVG Export Plug-In . SVG Version: 6.00 Build 0)  -->
<svg version="1.1" baseProfile="tiny" id="Layer_1" xmlns="http://www.w3.org/2000/svg" xmlns:xlink="http://www.w3.org/1999/xlink"
	 x="0px" y="0px" viewBox="0 0 400 400" overflow="visible" xml:space="preserve">
<path fill="#007ACC" d="M0,200V0h400v400H0"/>
<path fill="#FFFFFF" d="M88.7,201.7V218h52v148h36.9V218h52v-16c0-9,0-16.3-0.4-16.5c0-0.3-31.7-0.4-70.2-0.4l-70,0.3v16.4
	L88.7,201.7L88.7,201.7z M322.4,185c10.2,2.4,18,7,25,14.3c3.7,4,9.2,11,9.6,12.8c0,0.6-17.3,12.3-27.8,18.8c-0.4,0.3-2-1.4-3.6-4
	c-5.2-7.4-10.5-10.6-18.8-11.2c-12-0.8-20,5.5-20,16c0,3.2,0.6,5,1.8,7.6c2.7,5.5,7.7,8.8,23.2,15.6c28.6,12.3,41,20.4,48.5,32
	c8.5,13,10.4,33.4,4.7,48.7c-6.4,16.7-22,28-44.3,31.7c-7,1.2-23,1-30.5-0.3c-16-3-31.3-11-40.7-21.3c-3.7-4-10.8-14.7-10.4-15.4
	l3.8-2.4l15-8.7l11.3-6.6l2.6,3.5c3.3,5.2,10.7,12.2,15,14.6c13,6.7,30.4,5.8,39-2c3.7-3.4,5.3-7,5.3-12c0-4.6-0.7-6.7-3-10.2
	c-3.2-4.4-9.6-8-27.6-16c-20.7-8.8-29.5-14.4-37.7-23c-4.7-5.2-9-13.3-11-20c-1.5-5.8-2-20-0.6-25.7c4.3-20,19.4-34,41-38
	c7-1.4,23.5-0.8,30.4,1L322.4,185L322.4,185z"/>
</svg>
