<svg width="270" height="77" viewBox="0 0 270 77" fill="none" xmlns="http://www.w3.org/2000/svg">
<path d="M247.98 27.0179C247.324 27.0179 246.686 27.1535 246.121 27.4731L228.248 37.7943C227.092 38.461 226.389 39.7193 226.389 41.0584V61.6634C226.389 63.0014 227.092 64.2582 228.248 64.9264L232.916 67.6209C235.184 68.7385 236.02 68.7211 237.052 68.7211C240.409 68.7211 242.326 66.6837 242.326 63.1433V42.8036C242.326 42.5161 242.077 42.3104 241.795 42.3104H239.556C239.269 42.3104 239.025 42.5161 239.025 42.8036V63.1433C239.025 64.7123 237.39 66.2908 234.737 64.9644L229.88 62.1186C229.708 62.0252 229.576 61.8601 229.576 61.6634V41.0579C229.576 40.8627 229.707 40.6639 229.88 40.5648L247.715 30.282C247.795 30.2349 247.887 30.2101 247.98 30.2101C248.074 30.2101 248.165 30.2349 248.246 30.282L266.081 40.5653C266.251 40.6676 266.385 40.8569 266.385 41.0589V61.6639C266.385 61.8607 266.286 62.0621 266.119 62.1571L248.246 72.4403C248.093 72.5315 247.882 72.5315 247.715 72.4403L243.123 69.7084C243.053 69.6705 242.975 69.6506 242.896 69.6506C242.816 69.6506 242.738 69.6705 242.668 69.7084C241.401 70.4267 241.162 70.51 239.974 70.9224C239.681 71.0248 239.236 71.1835 240.125 71.6819L246.121 75.2102C246.686 75.5364 247.328 75.7067 247.981 75.7039C248.633 75.7079 249.275 75.5377 249.84 75.2107L267.713 64.927C268.869 64.2545 269.572 63.0019 269.572 61.6639V41.0584C269.572 39.7199 268.869 38.4636 267.713 37.7954L249.84 27.4741C249.279 27.154 248.637 27.0185 247.981 27.0185L247.98 27.0179Z" fill="white" fill-opacity="0.17"/>
<path d="M252.761 41.7414C247.672 41.7414 244.641 43.9074 244.641 47.5096C244.641 51.4166 247.649 52.4903 252.534 52.9734C258.378 53.5457 258.833 54.4038 258.833 55.554C258.833 57.5492 257.242 58.3999 253.483 58.3999C248.759 58.3999 247.721 57.2206 247.373 54.871C247.332 54.6189 247.138 54.4154 246.88 54.4154H244.565C244.28 54.4154 244.034 54.6611 244.034 54.947C244.034 57.9547 245.67 61.5115 253.483 61.5115C259.138 61.5115 262.4 59.2917 262.4 55.4021C262.4 51.5468 259.765 50.5115 254.279 49.7864C248.736 49.0527 248.208 48.6936 248.208 47.3957C248.208 46.324 248.656 44.8905 252.761 44.8905C256.429 44.8905 257.784 45.6816 258.34 48.1546C258.388 48.3866 258.593 48.5718 258.833 48.5718H261.148C261.291 48.5718 261.429 48.4842 261.527 48.3819C261.624 48.2727 261.693 48.1498 261.679 48.0027C261.321 43.7445 258.481 41.7414 252.761 41.7414V41.7414Z" fill="white" fill-opacity="0.17"/>
<path d="M142.907 0.000245005C142.707 0.000377522 142.51 0.0525446 142.337 0.151609C142.165 0.252485 142.021 0.396534 141.922 0.569564C141.822 0.742594 141.769 0.938636 141.768 1.13838V30.1676C141.768 30.4523 141.636 30.7076 141.389 30.8505C141.268 30.921 141.13 30.9581 140.99 30.9581C140.85 30.9581 140.713 30.921 140.592 30.8505L135.848 28.1186C135.502 27.9184 135.11 27.813 134.71 27.813C134.31 27.813 133.918 27.9184 133.572 28.1186L114.636 39.0469C113.929 39.4556 113.498 40.2409 113.498 41.0584V62.9154C113.498 63.7318 113.929 64.4797 114.636 64.8884L133.572 75.8172C133.917 76.0179 134.31 76.1236 134.71 76.1236C135.11 76.1236 135.503 76.0179 135.848 75.8172L154.784 64.8884C155.13 64.6889 155.418 64.4014 155.618 64.0549C155.818 63.7085 155.923 63.3154 155.922 62.9154V8.42441C155.922 8.01505 155.813 7.61315 155.606 7.25976C155.399 6.90637 155.103 6.61414 154.746 6.41291L143.476 0.113636C143.299 0.0150122 143.103 -0.002392 142.907 0.000245005V0.000245005ZM21.0981 27.2837C20.7374 27.298 20.3977 27.3613 20.0739 27.549L1.13814 38.4778C0.791275 38.6771 0.503291 38.9645 0.303406 39.311C0.103521 39.6576 -0.00115082 40.0508 9.54355e-06 40.4508L0.0379824 69.7843C0.0379824 70.192 0.248415 70.5712 0.607047 70.7705C0.778984 70.8738 0.97579 70.9284 1.17638 70.9284C1.37696 70.9284 1.57377 70.8738 1.74571 70.7705L12.9778 64.3199C13.6892 63.8969 14.1539 63.1617 14.1539 62.3464V48.6477C14.1539 47.8302 14.5837 47.0802 15.2925 46.6741L20.0734 43.9042C20.4191 43.7032 20.8122 43.5983 21.2121 43.6004C21.6023 43.6004 22.0032 43.698 22.3502 43.9042L27.1316 46.6741C27.4788 46.8732 27.767 47.1607 27.9671 47.5074C28.1671 47.854 28.2717 48.2474 28.2703 48.6477V62.3458C28.2703 63.1612 28.7396 63.9017 29.4464 64.3194L40.6784 70.7705C40.8503 70.8738 41.0472 70.9284 41.2477 70.9284C41.4483 70.9284 41.6451 70.8738 41.8171 70.7705C41.9901 70.6704 42.1338 70.5265 42.2338 70.3533C42.3338 70.1801 42.3865 69.9837 42.3867 69.7838L42.4236 40.4508C42.4258 40.0506 42.3216 39.6569 42.1216 39.3102C41.9216 38.9635 41.633 38.6762 41.2854 38.4778L22.3502 27.549C22.0301 27.3613 21.6894 27.2985 21.326 27.2837H21.0981ZM191.25 27.549C190.855 27.549 190.467 27.6492 190.112 27.8528L171.177 38.7816C170.83 38.981 170.542 39.2685 170.342 39.615C170.142 39.9614 170.037 40.3546 170.038 40.7546V62.6116C170.038 63.4339 170.501 64.1785 171.214 64.5852L189.998 75.2861C190.692 75.6817 191.539 75.7117 192.237 75.323L203.621 68.9863C203.982 68.7859 204.226 68.4115 204.228 68.0001C204.23 67.7998 204.178 67.6026 204.078 67.4291C203.978 67.2555 203.833 67.112 203.659 67.0133L184.61 56.0845C184.253 55.881 184.003 55.4691 184.003 55.0598V48.23C184.003 47.8212 184.256 47.4468 184.61 47.2432L190.529 43.8277C190.702 43.7276 190.899 43.6749 191.099 43.6749C191.298 43.6749 191.495 43.7276 191.668 43.8277L197.587 47.2432C197.76 47.3428 197.904 47.4865 198.004 47.6597C198.104 47.8329 198.157 48.0294 198.156 48.2294V53.6179C198.156 53.8178 198.208 54.0144 198.308 54.1876C198.408 54.3608 198.552 54.5045 198.726 54.6041C199.081 54.8093 199.51 54.8098 199.864 54.6041L211.21 48.0026C211.556 47.8024 211.844 47.5146 212.044 47.1682C212.243 46.8219 212.349 46.429 212.349 46.0291V40.7551C212.349 39.9403 211.916 39.1908 211.21 38.7816L192.389 27.8528C192.043 27.6526 191.65 27.548 191.25 27.5495V27.549ZM134.634 43.8662C134.733 43.8662 134.849 43.8905 134.938 43.9417L141.427 47.6983C141.603 47.8001 141.73 47.9884 141.73 48.1915V55.7048C141.73 55.9089 141.604 56.0967 141.427 56.1985L134.938 59.9551C134.851 60.0046 134.753 60.0306 134.653 60.0306C134.553 60.0306 134.455 60.0046 134.368 59.9551L127.88 56.1985C127.703 56.0961 127.576 55.9089 127.576 55.7048V48.1915C127.576 47.9879 127.704 47.8012 127.88 47.6983L134.368 43.9422C134.448 43.8926 134.54 43.8664 134.634 43.8668V43.8662H134.634Z" fill="white" fill-opacity="0.17"/>
<path d="M77.9798 27.4351C77.5853 27.4351 77.195 27.5353 76.8417 27.7388L57.9064 38.6297C57.1981 39.0373 56.7678 39.8242 56.7678 40.6406V62.4977C56.7678 63.3152 57.1986 64.062 57.9064 64.4712L76.8417 75.3995C77.1874 75.6004 77.5802 75.7062 77.9801 75.7062C78.3799 75.7062 78.7727 75.6004 79.1185 75.3995L98.0537 64.4712C98.4004 64.2716 98.6882 63.984 98.888 63.6374C99.0879 63.2909 99.1927 62.8977 99.1919 62.4977V40.6406C99.1919 39.8232 98.7615 39.0373 98.0537 38.6297L79.1185 27.7388C78.7723 27.5389 78.3795 27.4341 77.9798 27.4351ZM191.212 46.9399C191.137 46.9399 191.053 46.9399 190.985 46.9779L187.342 49.1028C187.274 49.1405 187.217 49.1955 187.177 49.2621C187.137 49.3288 187.116 49.4048 187.114 49.4825V53.6564C187.114 53.8135 187.205 53.9575 187.342 54.0361L190.985 56.123C191.121 56.2021 191.267 56.2021 191.402 56.123L195.045 54.0356C195.112 53.9976 195.169 53.9427 195.209 53.8762C195.249 53.8097 195.271 53.7339 195.273 53.6564V49.482C195.271 49.4044 195.249 49.3287 195.209 49.2622C195.169 49.1957 195.112 49.1407 195.045 49.1028L191.402 46.9774C191.335 46.9378 191.288 46.9399 191.212 46.9399Z" fill="white" fill-opacity="0.17"/>
</svg>
