<svg width="165" height="86" viewBox="0 0 165 86" fill="none" xmlns="http://www.w3.org/2000/svg">
<path fill-rule="evenodd" clip-rule="evenodd" d="M164.276 42.7567C164.276 66.3706 127.502 85.5134 82.1381 85.5134C36.7745 85.5134 0 66.3706 0 42.7567C0 19.1428 36.7745 0 82.1381 0C127.502 0 164.276 19.1428 164.276 42.7567ZM32.0678 22.5032L23.066 68.0732H33.7555L36.006 56.2588H46.1314C55.696 56.8215 66.3849 48.9453 66.3849 35.4432C66.3849 27.5663 61.8839 23.066 52.8828 22.5032H32.0678ZM41.069 30.9423L38.2558 47.8204H38.2564H45.0071C50.0702 47.2576 54.5711 45.5699 55.1332 36.0053C55.1332 32.6299 52.3206 30.9423 48.3825 30.9423H41.069ZM73.2947 10.6895L64.2935 56.2588H74.983L80.0461 30.9423H88.4851C92.4226 30.9423 92.4226 32.6299 91.8605 35.4432L87.9224 56.2588H99.174L103.112 33.1927C104.237 27.5663 100.862 23.066 91.8598 22.5032H81.7338L83.9842 10.6895H73.2947ZM107.455 22.5032L98.4534 68.0732H109.142L111.393 56.2588H121.519C131.083 56.8215 141.773 48.9453 141.773 35.4432C141.773 27.5663 137.272 23.066 128.27 22.5032H107.455ZM116.456 30.9423L113.642 47.8204H113.643H120.394C125.458 47.2576 129.958 45.5699 130.521 36.0053C130.521 32.6299 127.708 30.9423 123.77 30.9423H116.456Z" fill="white" fill-opacity="0.17"/>
</svg>
