<svg width="351" height="95" viewBox="0 0 351 95" fill="none" xmlns="http://www.w3.org/2000/svg">
<path fill-rule="evenodd" clip-rule="evenodd" d="M103.137 70.4019V27.2568H108.685L135.051 61.9783V27.2568H140.324V70.4019H134.777L108.411 35.3379V70.4019H103.137ZM183.264 68.6898C179.771 69.991 176.005 70.6758 172.033 70.6758C156.418 70.6758 148.611 63.211 148.611 48.213C148.611 34.0367 156.144 26.9143 171.211 26.9143C175.525 26.9143 179.566 27.5307 183.264 28.6949V33.4888C179.566 32.0507 175.731 31.3658 171.827 31.3658C160.048 31.3658 154.158 36.9815 154.158 48.076C154.158 60.0607 159.979 66.0189 171.553 66.0189C173.402 66.0189 175.457 65.7449 177.717 65.2655V50.8154H183.264V68.6898V68.6898ZM192.167 53.7602V27.2568H197.714V53.7602C197.714 62.0468 201.823 66.2243 210.11 66.2243C218.328 66.2243 222.505 62.0468 222.505 53.7602V27.2568H228.053V53.7602C228.053 65.0601 222.095 70.7443 210.11 70.7443C198.125 70.7443 192.167 65.0601 192.167 53.7602V53.7602ZM243.53 27.2568V65.8819H266.13V70.4019H237.983V27.2568H243.53V27.2568ZM274.143 70.4019H268.321L289.757 21.5726L311.193 70.4019H305.029L299.482 56.842H285.237L286.744 52.322H297.633L289.552 32.804L274.143 70.4019V70.4019ZM317.151 70.4019V27.2568H335.573C343.791 27.2568 347.9 30.681 347.9 37.5979C347.9 43.2136 343.86 47.3911 335.847 50.062L350.64 70.4019H343.312L329.615 51.0208V47.3911C337.833 46.0899 342.011 42.9397 342.011 37.8718C342.011 33.8997 339.751 31.9137 335.162 31.9137H322.835V70.4019H317.151V70.4019Z" fill="white" fill-opacity="0.17"/>
<path fill-rule="evenodd" clip-rule="evenodd" d="M44.1724 0L0 15.7514L6.77995 74.1685L44.1724 94.9192L82.1812 73.8946L89.509 15.4775L44.1724 0ZM44.2408 11.0945L16.7102 72.3195L26.9828 72.114L32.53 58.2802H57.1159L63.1425 72.251L72.9358 72.4564L44.2408 11.0945V11.0945ZM44.3093 30.7495L53.6232 50.199H36.1597L44.3093 30.7495V30.7495Z" fill="white" fill-opacity="0.17"/>
</svg>
