<?xml version="1.0" encoding="utf-8"?>
<!-- Generator: Adobe Illustrator 24.3.0, SVG Export Plug-In . SVG Version: 6.00 Build 0)  -->
<svg version="1.1" baseProfile="tiny" id="Layer_1" xmlns="http://www.w3.org/2000/svg" xmlns:xlink="http://www.w3.org/1999/xlink"
	 x="0px" y="0px" viewBox="0 0 250 250" overflow="visible" xml:space="preserve">
<g>
	<polygon fill="#DD0031" points="125,9.2 125,9.2 125,9.2 12.6,49.3 29.7,198 125,250.8 125,250.8 125,250.8 220.3,198 237.4,49.3 	
		"/>
	<polygon fill="#C3002F" points="125,9.2 125,36 125,35.9 125,158.3 125,158.3 125,250.8 125,250.8 220.3,198 237.4,49.3 	"/>
	<path fill="#FFFFFF" d="M125,35.9L54.7,193.5l0,0h26.2l0,0L95,158.3h59.7l14.1,35.3l0,0h26.2l0,0L125,35.9L125,35.9L125,35.9
		L125,35.9L125,35.9z M145.5,136.5h-41.1L125,87.1L145.5,136.5z"/>
</g>
</svg>
