<svg width="89" height="89" viewBox="0 0 89 89" fill="none" xmlns="http://www.w3.org/2000/svg">
<path fill-rule="evenodd" clip-rule="evenodd" d="M0 0H88.3612V88.3612H0V0ZM67.5472 74.0747C63.4518 74.0747 61.1361 71.9386 59.3563 69.0325L52.6086 72.9527C55.0462 77.7691 60.0281 81.4438 67.7394 81.4438C75.626 81.4438 81.4985 77.3483 81.4985 69.8727C81.4985 62.9384 77.5152 59.8542 70.4603 56.8289L68.3846 55.9396C64.8221 54.3968 63.2792 53.3884 63.2792 50.8974C63.2792 48.882 64.8206 47.3391 67.2527 47.3391C69.637 47.3391 71.1728 48.3448 72.5964 50.8974L79.0622 46.7459C76.3272 41.9351 72.5319 40.0977 67.2527 40.0977C59.8374 40.0977 55.0925 44.8384 55.0925 51.0657C55.0925 57.8261 59.073 61.0239 65.0647 63.5766L67.1405 64.4672C70.9274 66.1236 73.1855 67.132 73.1855 69.9792C73.1855 72.3552 70.9877 74.0747 67.5472 74.0747ZM35.3683 74.0228C32.5155 74.0228 31.329 72.0663 30.0246 69.752L23.2656 73.844C25.2236 77.9879 29.0736 81.4283 35.7218 81.4283C43.0796 81.4283 48.1204 77.5152 48.1204 68.9175V40.5718H39.8172V68.8053C39.8172 72.9555 38.0963 74.0228 35.3683 74.0228Z" fill="white" fill-opacity="0.17"/>
</svg>
