<svg width="99" height="88" viewBox="0 0 99 88" fill="none" xmlns="http://www.w3.org/2000/svg">
<path d="M98.5918 43.9101C98.5918 37.3789 90.4127 31.1893 77.8727 27.3509C80.7665 14.5697 79.4803 4.40106 73.8132 1.14548C72.507 0.381827 70.9797 0.0200959 69.3117 0.0200959V4.50154C70.2361 4.50154 70.9797 4.68241 71.6026 5.02404C74.3357 6.59154 75.5214 12.5601 74.597 20.2368C74.3759 22.1259 74.0142 24.1154 73.5721 26.1451C69.6332 25.1805 65.3326 24.4369 60.811 23.9546C58.098 20.2368 55.2846 16.8607 52.451 13.9065C59.0024 7.81741 65.1518 4.48145 69.3318 4.48145V0C63.8053 0 56.5707 3.93885 49.2557 10.7715C41.9407 3.97904 34.7061 0.080385 29.1796 0.080385V4.56183C33.3395 4.56183 39.5091 7.8777 46.0604 13.9266C43.247 16.8808 40.4335 20.2368 37.7607 23.9546C33.219 24.4369 28.9184 25.1805 24.9795 26.1652C24.5173 24.1556 24.1757 22.2063 23.9345 20.3373C22.99 12.6606 24.1556 6.69202 26.8686 5.10443C27.4715 4.7427 28.2552 4.58193 29.1796 4.58193V0.100481C27.4916 0.100481 25.9642 0.462212 24.6379 1.22587C18.9909 4.48145 17.7248 14.63 20.6388 27.371C8.13895 31.2294 0 37.399 0 43.9101C0 50.4414 8.17914 56.631 20.7191 60.4694C17.8253 73.2505 19.1115 83.4192 24.7786 86.6748C26.0848 87.4384 27.6121 87.8002 29.3002 87.8002C34.8267 87.8002 42.0613 83.8613 49.3763 77.0286C56.6913 83.8211 63.9259 87.7198 69.4524 87.7198C71.1404 87.7198 72.6678 87.358 73.9941 86.5944C79.6411 83.3388 80.9072 73.1902 77.9932 60.4493C90.4529 56.6109 98.5918 50.4213 98.5918 43.9101V43.9101ZM72.4266 30.506C71.683 33.0984 70.7586 35.7712 69.7136 38.444C68.8897 36.8363 68.0255 35.2286 67.081 33.6209C66.1566 32.0132 65.1719 30.4457 64.1872 28.9184C67.0408 29.3404 69.794 29.8629 72.4266 30.506ZM63.2225 51.9084C61.655 54.6214 60.0474 57.1937 58.3794 59.5851C55.385 59.8464 52.3505 59.9871 49.2959 59.9871C46.2614 59.9871 43.2269 59.8464 40.2526 59.6052C38.5846 57.2138 36.9569 54.6616 35.3894 51.9687C33.862 49.3361 32.4754 46.6633 31.2094 43.9704C32.4553 41.2775 33.862 38.5846 35.3693 35.952C36.9368 33.2391 38.5445 30.6668 40.2124 28.2753C43.2068 28.0141 46.2413 27.8734 49.2959 27.8734C52.3304 27.8734 55.3649 28.0141 58.3392 28.2552C60.0072 30.6467 61.635 33.1989 63.2025 35.8918C64.7298 38.5244 66.1164 41.1971 67.3825 43.89C66.1164 46.5829 64.7298 49.2758 63.2225 51.9084ZM69.7136 49.2959C70.7988 51.9888 71.7232 54.6817 72.4869 57.2942C69.8543 57.9373 67.081 58.4799 64.2073 58.9019C65.192 57.3545 66.1767 55.7669 67.1011 54.1391C68.0255 52.5314 68.8897 50.9036 69.7136 49.2959ZM49.3361 70.7385C47.4672 68.8093 45.5982 66.659 43.7494 64.3077C45.558 64.3881 47.4069 64.4484 49.2758 64.4484C51.1648 64.4484 53.0338 64.4082 54.8625 64.3077C53.0539 66.659 51.1849 68.8093 49.3361 70.7385ZM34.3845 58.9019C31.5309 58.4799 28.7777 57.9574 26.1451 57.3143C26.8887 54.7219 27.8131 52.0491 28.8581 49.3763C29.682 50.984 30.5462 52.5917 31.4907 54.1994C32.4352 55.8071 33.3998 57.3746 34.3845 58.9019ZM49.2356 17.0817C51.1046 19.011 52.9735 21.1613 54.8223 23.5125C53.0137 23.4321 51.1648 23.3718 49.2959 23.3718C47.4069 23.3718 45.5379 23.412 43.7092 23.5125C45.5178 21.1613 47.3868 19.011 49.2356 17.0817ZM34.3645 28.9184C33.3797 30.4658 32.395 32.0534 31.4706 33.6812C30.5462 35.2889 29.682 36.8966 28.8581 38.5043C27.7729 35.8114 26.8485 33.1185 26.0848 30.506C28.7174 29.883 31.4907 29.3404 34.3645 28.9184V28.9184ZM16.1774 54.0788C9.06338 51.0443 4.46135 47.0652 4.46135 43.9101C4.46135 40.755 9.06338 36.7559 16.1774 33.7415C17.9057 32.9979 19.7947 32.3347 21.7441 31.7118C22.8895 35.6506 24.3967 39.7502 26.2657 43.9503C24.4168 48.1303 22.9297 52.2098 21.8043 56.1286C19.8148 55.5056 17.9258 54.8224 16.1774 54.0788ZM26.9892 82.7962C24.2561 81.2287 23.0704 75.2602 23.9948 67.5834C24.2159 65.6944 24.5776 63.7049 25.0197 61.6751C28.9586 62.6398 33.2592 63.3833 37.7808 63.8656C40.4938 67.5834 43.3072 70.9596 46.1408 73.9137C39.5895 80.0028 33.44 83.3388 29.26 83.3388C28.3557 83.3187 27.592 83.1379 26.9892 82.7962V82.7962ZM74.6573 67.4829C75.6018 75.1597 74.4362 81.1282 71.7232 82.7158C71.1203 83.0776 70.3366 83.2383 69.4122 83.2383C65.2523 83.2383 59.0827 79.9225 52.5314 73.8735C55.3449 70.9194 58.1583 67.5633 60.8311 63.8455C65.3728 63.3632 69.6734 62.6197 73.6123 61.635C74.0745 63.6647 74.4362 65.614 74.6573 67.4829V67.4829ZM82.3943 54.0788C80.666 54.8224 78.777 55.4855 76.8277 56.1085C75.6822 52.1697 74.175 48.07 72.306 43.8699C74.1549 39.6899 75.642 35.6104 76.7674 31.6917C78.7569 32.3146 80.6459 32.9979 82.4144 33.7415C89.5284 36.776 94.1305 40.755 94.1305 43.9101C94.1104 47.0652 89.5083 51.0644 82.3943 54.0788V54.0788Z" fill="white" fill-opacity="0.17"/>
<path d="M49.2758 53.094C54.3479 53.094 58.4597 48.9822 58.4597 43.9101C58.4597 38.8379 54.3479 34.7261 49.2758 34.7261C44.2036 34.7261 40.0918 38.8379 40.0918 43.9101C40.0918 48.9822 44.2036 53.094 49.2758 53.094Z" fill="white" fill-opacity="0.17"/>
</svg>
